<!DOCTYPE svg PUBLIC "-//W3C//DTD SVG 20010904//EN" "http://www.w3.org/TR/2001/REC-SVG-20010904/DTD/svg10.dtd">
<svg version="1.0" xmlns="http://www.w3.org/2000/svg" width="640px" height="480px" viewBox="0 0 6400 4800" preserveAspectRatio="xMidYMid meet">
<g id="layer1" fill="#8d8d8d" stroke="none">
 <path d="M950 4545 c0 -7 496 -866 797 -1380 l134 -230 69 -1270 c38 -698 70 -1303 72 -1342 2 -40 5 -73 9 -73 3 0 214 362 469 804 l464 803 1119 729 c615 401 1123 735 1129 741 8 11 -177 13 -932 13 l-942 0 -1051 534 c-579 293 -1113 565 -1187 602 -164 83 -150 77 -150 69z m1438 -740 c759 -385 1379 -701 1378 -702 -1 -1 -235 52 -520 117 -285 66 -519 120 -522 120 -2 0 -4 -5 -4 -11 0 -15 -511 -899 -519 -899 -4 0 -80 242 -171 538 -90 295 -165 539 -167 541 -12 15 -11 -35 2 -264 8 -142 13 -260 11 -262 -1 -2 -196 331 -431 739 -236 409 -435 754 -444 767 -9 14 -10 22 -4 20 6 -2 632 -319 1391 -704z m-348 -930 l147 -480 528 -5 529 -5 -387 -415 c-213 -228 -382 -417 -377 -418 6 -2 108 60 226 138 119 77 218 140 219 138 1 -2 -196 -347 -439 -767 -254 -441 -442 -756 -444 -745 -5 38 -162 2983 -161 3025 0 24 3 37 6 29 4 -8 72 -231 153 -495z m1819 191 c6 6 15 1 -236 130 l-232 119 445 3 c244 1 645 1 891 0 l447 -3 -1315 -856 c-723 -472 -1316 -855 -1318 -854 -3 4 657 717 710 767 l29 28 -29 47 c-33 54 -501 865 -501 868 0 1 249 -56 552 -126 304 -70 555 -126 557 -123z m-859 -218 l250 -433 -511 -3 c-282 -1 -514 0 -516 2 -3 2 112 205 253 450 184 318 260 442 266 432 5 -8 121 -210 258 -448z"/>
 </g>
<g id="layer2" fill="#000000" stroke="none">
 <path d="M0 2400 l0 -2400 3200 0 3200 0 0 2400 0 2400 -3200 0 -3200 0 0 -2400z m1100 2076 c74 -37 608 -309 1187 -602 l1051 -534 942 0 c755 0 940 -2 932 -13 -6 -6 -514 -340 -1129 -741 l-1119 -729 -464 -803 c-255 -442 -466 -804 -469 -804 -4 0 -7 33 -9 73 -2 39 -34 644 -72 1342 l-69 1270 -134 230 c-301 514 -797 1373 -797 1380 0 8 -14 14 150 -69z"/>
 <path d="M1001 4489 c9 -13 208 -358 444 -767 235 -408 430 -741 431 -739 2 2 -3 120 -11 262 -13 229 -14 279 -2 264 2 -2 77 -246 167 -541 91 -296 167 -538 171 -538 8 0 519 884 519 899 0 6 2 11 4 11 3 0 237 -54 522 -120 285 -65 519 -118 520 -117 2 2 -2749 1399 -2769 1406 -6 2 -5 -6 4 -20z"/>
 <path d="M1881 3341 c-1 -42 156 -2987 161 -3025 2 -11 190 304 444 745 243 420 440 765 439 767 -1 2 -100 -61 -219 -138 -118 -78 -220 -140 -226 -138 -5 1 164 190 377 418 l387 415 -529 5 -528 5 -147 480 c-81 264 -149 487 -153 495 -3 8 -6 -5 -6 -29z"/>
 <path d="M2750 3315 c0 -3 468 -814 501 -868 l29 -47 -29 -28 c-53 -50 -713 -763 -710 -767 2 -1 595 382 1318 854 l1315 856 -447 3 c-246 1 -647 1 -891 0 l-445 -3 232 -119 c251 -129 242 -124 236 -130 -2 -3 -253 53 -557 123 -303 70 -552 127 -552 126z"/>
 <path d="M2476 2864 c-141 -245 -256 -448 -253 -450 2 -2 234 -3 516 -2 l511 3 -250 433 c-137 238 -253 440 -258 448 -6 10 -82 -114 -266 -432z"/>
 </g>

</svg>